<?xml version="1.0" encoding="UTF-8" standalone="no"?>
<!DOCTYPE svg PUBLIC "-//W3C//DTD SVG 1.1//EN"
 "http://www.w3.org/Graphics/SVG/1.1/DTD/svg11.dtd">
<!-- Generated by graphviz version 2.43.0 (0)
 -->
<!-- Title: %3 Pages: 1 -->
<svg width="447pt" height="3020pt"
 viewBox="0.00 0.00 446.94 3019.89" xmlns="http://www.w3.org/2000/svg" xmlns:xlink="http://www.w3.org/1999/xlink">
<g id="graph0" class="graph" transform="scale(1 1) rotate(0) translate(4 3015.89)">
<title>%3</title>
<polygon fill="white" stroke="transparent" points="-4,4 -4,-3015.89 442.94,-3015.89 442.94,4 -4,4"/>
<!-- 8796280764347730602 -->
<g id="node1" class="node">
<title>8796280764347730602</title>
<ellipse fill="none" stroke="black" cx="140.39" cy="-2887.24" rx="52.79" ry="52.79"/>
<text text-anchor="middle" x="140.39" y="-2883.54" font-family="Helvetica,sans-Serif" font-size="14.00">with&#45;field</text>
</g>
<!-- &#45;2815472515340636750 -->
<g id="node2" class="node">
<title>&#45;2815472515340636750</title>
<polygon fill="none" stroke="black" points="167.39,-3011.89 113.39,-3011.89 113.39,-2975.89 167.39,-2975.89 167.39,-3011.89"/>
<text text-anchor="middle" x="140.39" y="-2990.19" font-family="Helvetica,sans-Serif" font-size="14.00">0</text>
</g>
<!-- 8796280764347730602&#45;&gt;&#45;2815472515340636750 -->
<g id="edge1" class="edge">
<title>8796280764347730602&#45;&gt;&#45;2815472515340636750</title>
<path fill="none" stroke="black" d="M140.39,-2939.95C140.39,-2948.87 140.39,-2957.82 140.39,-2965.75"/>
<polygon fill="black" stroke="black" points="136.89,-2965.84 140.39,-2975.84 143.89,-2965.84 136.89,-2965.84"/>
</g>
<!-- 3603358666434683924 -->
<g id="node3" class="node">
<title>3603358666434683924</title>
<polygon fill="none" stroke="black" points="185.39,-2798.6 131.39,-2798.6 131.39,-2762.6 185.39,-2762.6 185.39,-2798.6"/>
<text text-anchor="middle" x="158.39" y="-2776.9" font-family="Helvetica,sans-Serif" font-size="14.00">0</text>
</g>
<!-- 3603358666434683924&#45;&gt;8796280764347730602 -->
<g id="edge2" class="edge">
<title>3603358666434683924&#45;&gt;8796280764347730602</title>
<path fill="none" stroke="black" d="M155.42,-2798.88C154.15,-2806.29 152.57,-2815.44 150.93,-2824.99"/>
<polygon fill="black" stroke="black" points="147.45,-2824.59 149.2,-2835.04 154.35,-2825.78 147.45,-2824.59"/>
</g>
<!-- &#45;5623804920463254122 -->
<g id="node4" class="node">
<title>&#45;5623804920463254122</title>
<polygon fill="none" stroke="black" points="171.39,-2075.42 117.39,-2075.42 117.39,-2039.42 171.39,-2039.42 171.39,-2075.42"/>
<text text-anchor="middle" x="144.39" y="-2053.72" font-family="Helvetica,sans-Serif" font-size="14.00">0</text>
</g>
<!-- &#45;5623804920463254122&#45;&gt;8796280764347730602 -->
<g id="edge3" class="edge">
<title>&#45;5623804920463254122&#45;&gt;8796280764347730602</title>
<path fill="none" stroke="black" d="M131.21,-2075.65C124.25,-2085.6 116.18,-2098.63 111.39,-2111.42 92.77,-2161.17 92.39,-2176.3 92.39,-2229.42 92.39,-2229.42 92.39,-2229.42 92.39,-2682.1 92.39,-2732.22 106.27,-2787.46 119.1,-2827.83"/>
<polygon fill="black" stroke="black" points="115.83,-2829.07 122.25,-2837.5 122.48,-2826.91 115.83,-2829.07"/>
</g>
<!-- 4453021538526548882 -->
<g id="node57" class="node">
<title>4453021538526548882</title>
<ellipse fill="none" stroke="black" cx="152.39" cy="-2143.92" rx="32.49" ry="32.49"/>
<text text-anchor="middle" x="152.39" y="-2140.22" font-family="Helvetica,sans-Serif" font-size="14.00">digis</text>
</g>
<!-- &#45;5623804920463254122&#45;&gt;4453021538526548882 -->
<g id="edge62" class="edge">
<title>&#45;5623804920463254122&#45;&gt;4453021538526548882</title>
<path fill="none" stroke="black" d="M146.01,-2075.52C146.72,-2083.02 147.59,-2092.18 148.45,-2101.3"/>
<polygon fill="black" stroke="black" points="144.99,-2101.87 149.42,-2111.49 151.96,-2101.21 144.99,-2101.87"/>
</g>
<!-- &#45;2565741098790128439 -->
<g id="node5" class="node">
<title>&#45;2565741098790128439</title>
<ellipse fill="none" stroke="black" cx="292.39" cy="-2887.24" rx="52.79" ry="52.79"/>
<text text-anchor="middle" x="292.39" y="-2883.54" font-family="Helvetica,sans-Serif" font-size="14.00">with&#45;field</text>
</g>
<!-- 3692168240761361675 -->
<g id="node6" class="node">
<title>3692168240761361675</title>
<polygon fill="none" stroke="black" points="319.39,-3011.89 265.39,-3011.89 265.39,-2975.89 319.39,-2975.89 319.39,-3011.89"/>
<text text-anchor="middle" x="292.39" y="-2990.19" font-family="Helvetica,sans-Serif" font-size="14.00">1</text>
</g>
<!-- &#45;2565741098790128439&#45;&gt;3692168240761361675 -->
<g id="edge4" class="edge">
<title>&#45;2565741098790128439&#45;&gt;3692168240761361675</title>
<path fill="none" stroke="black" d="M292.39,-2939.95C292.39,-2948.87 292.39,-2957.82 292.39,-2965.75"/>
<polygon fill="black" stroke="black" points="288.89,-2965.84 292.39,-2975.84 295.89,-2965.84 288.89,-2965.84"/>
</g>
<!-- 7929865124273601128 -->
<g id="node7" class="node">
<title>7929865124273601128</title>
<polygon fill="none" stroke="black" points="308.39,-2075.42 254.39,-2075.42 254.39,-2039.42 308.39,-2039.42 308.39,-2075.42"/>
<text text-anchor="middle" x="281.39" y="-2053.72" font-family="Helvetica,sans-Serif" font-size="14.00">1</text>
</g>
<!-- 7929865124273601128&#45;&gt;&#45;2565741098790128439 -->
<g id="edge5" class="edge">
<title>7929865124273601128&#45;&gt;&#45;2565741098790128439</title>
<path fill="none" stroke="black" d="M280.21,-2075.89C278.21,-2106.82 274.39,-2173.26 274.39,-2229.42 274.39,-2229.42 274.39,-2229.42 274.39,-2682.1 274.39,-2730.15 279.4,-2784.32 284.14,-2824.78"/>
<polygon fill="black" stroke="black" points="280.67,-2825.24 285.33,-2834.76 287.62,-2824.41 280.67,-2825.24"/>
</g>
<!-- 4491714460463384632 -->
<g id="node58" class="node">
<title>4491714460463384632</title>
<ellipse fill="none" stroke="black" cx="334.39" cy="-2143.92" rx="32.49" ry="32.49"/>
<text text-anchor="middle" x="334.39" y="-2140.22" font-family="Helvetica,sans-Serif" font-size="14.00">digis</text>
</g>
<!-- 7929865124273601128&#45;&gt;4491714460463384632 -->
<g id="edge64" class="edge">
<title>7929865124273601128&#45;&gt;4491714460463384632</title>
<path fill="none" stroke="black" d="M292.12,-2075.52C297.85,-2084.66 305.12,-2096.25 312.01,-2107.24"/>
<polygon fill="black" stroke="black" points="309.14,-2109.25 317.42,-2115.87 315.07,-2105.54 309.14,-2109.25"/>
</g>
<!-- &#45;8335744651172869267 -->
<g id="node8" class="node">
<title>&#45;8335744651172869267</title>
<polygon fill="none" stroke="black" points="365.39,-2798.6 311.39,-2798.6 311.39,-2762.6 365.39,-2762.6 365.39,-2798.6"/>
<text text-anchor="middle" x="338.39" y="-2776.9" font-family="Helvetica,sans-Serif" font-size="14.00">1</text>
</g>
<!-- &#45;8335744651172869267&#45;&gt;&#45;2565741098790128439 -->
<g id="edge6" class="edge">
<title>&#45;8335744651172869267&#45;&gt;&#45;2565741098790128439</title>
<path fill="none" stroke="black" d="M330.8,-2798.88C327.05,-2807.4 322.29,-2818.23 317.41,-2829.33"/>
<polygon fill="black" stroke="black" points="314.12,-2828.11 313.3,-2838.68 320.53,-2830.93 314.12,-2828.11"/>
</g>
<!-- 4815501749355381436 -->
<g id="node9" class="node">
<title>4815501749355381436</title>
<ellipse fill="none" stroke="black" cx="144.39" cy="-1950.78" rx="52.79" ry="52.79"/>
<text text-anchor="middle" x="144.39" y="-1947.08" font-family="Helvetica,sans-Serif" font-size="14.00">with&#45;field</text>
</g>
<!-- 4815501749355381436&#45;&gt;&#45;5623804920463254122 -->
<g id="edge7" class="edge">
<title>4815501749355381436&#45;&gt;&#45;5623804920463254122</title>
<path fill="none" stroke="black" d="M144.39,-2003.49C144.39,-2012.41 144.39,-2021.35 144.39,-2029.29"/>
<polygon fill="black" stroke="black" points="140.89,-2029.37 144.39,-2039.37 147.89,-2029.37 140.89,-2029.37"/>
</g>
<!-- 4379990753990304505 -->
<g id="node10" class="node">
<title>4379990753990304505</title>
<polygon fill="none" stroke="black" points="176.39,-1554.24 122.39,-1554.24 122.39,-1518.24 176.39,-1518.24 176.39,-1554.24"/>
<text text-anchor="middle" x="149.39" y="-1532.54" font-family="Helvetica,sans-Serif" font-size="14.00">0</text>
</g>
<!-- 4379990753990304505&#45;&gt;4815501749355381436 -->
<g id="edge8" class="edge">
<title>4379990753990304505&#45;&gt;4815501749355381436</title>
<path fill="none" stroke="black" d="M143.73,-1554.51C135.55,-1581.03 121.39,-1633.51 121.39,-1679.24 121.39,-1679.24 121.39,-1679.24 121.39,-1763.19 121.39,-1805.4 127.26,-1852.59 133.07,-1888.95"/>
<polygon fill="black" stroke="black" points="129.63,-1889.6 134.71,-1898.91 136.54,-1888.47 129.63,-1889.6"/>
</g>
<!-- &#45;420666299168297185 -->
<g id="node45" class="node">
<title>&#45;420666299168297185</title>
<ellipse fill="none" stroke="black" cx="172.39" cy="-1608.24" rx="18" ry="18"/>
<text text-anchor="middle" x="172.39" y="-1604.54" font-family="Helvetica,sans-Serif" font-size="14.00">x</text>
</g>
<!-- 4379990753990304505&#45;&gt;&#45;420666299168297185 -->
<g id="edge48" class="edge">
<title>4379990753990304505&#45;&gt;&#45;420666299168297185</title>
<path fill="none" stroke="black" d="M155.08,-1554.54C157.71,-1562.54 160.89,-1572.22 163.8,-1581.08"/>
<polygon fill="black" stroke="black" points="160.48,-1582.21 166.93,-1590.62 167.14,-1580.02 160.48,-1582.21"/>
</g>
<!-- &#45;4056678974470401077 -->
<g id="node11" class="node">
<title>&#45;4056678974470401077</title>
<polygon fill="none" stroke="black" points="204.39,-1862.13 150.39,-1862.13 150.39,-1826.13 204.39,-1826.13 204.39,-1862.13"/>
<text text-anchor="middle" x="177.39" y="-1840.43" font-family="Helvetica,sans-Serif" font-size="14.00">0</text>
</g>
<!-- &#45;4056678974470401077&#45;&gt;4815501749355381436 -->
<g id="edge9" class="edge">
<title>&#45;4056678974470401077&#45;&gt;4815501749355381436</title>
<path fill="none" stroke="black" d="M171.94,-1862.41C169.42,-1870.41 166.26,-1880.44 162.99,-1890.81"/>
<polygon fill="black" stroke="black" points="159.64,-1889.81 159.97,-1900.4 166.31,-1891.91 159.64,-1889.81"/>
</g>
<!-- 4656463538809905916 -->
<g id="node12" class="node">
<title>4656463538809905916</title>
<ellipse fill="none" stroke="black" cx="281.39" cy="-1950.78" rx="52.79" ry="52.79"/>
<text text-anchor="middle" x="281.39" y="-1947.08" font-family="Helvetica,sans-Serif" font-size="14.00">with&#45;field</text>
</g>
<!-- 4656463538809905916&#45;&gt;7929865124273601128 -->
<g id="edge10" class="edge">
<title>4656463538809905916&#45;&gt;7929865124273601128</title>
<path fill="none" stroke="black" d="M281.39,-2003.49C281.39,-2012.41 281.39,-2021.35 281.39,-2029.29"/>
<polygon fill="black" stroke="black" points="277.89,-2029.37 281.39,-2039.37 284.89,-2029.37 277.89,-2029.37"/>
</g>
<!-- &#45;7559112563617248686 -->
<g id="node13" class="node">
<title>&#45;7559112563617248686</title>
<polygon fill="none" stroke="black" points="309.39,-1554.24 255.39,-1554.24 255.39,-1518.24 309.39,-1518.24 309.39,-1554.24"/>
<text text-anchor="middle" x="282.39" y="-1532.54" font-family="Helvetica,sans-Serif" font-size="14.00">1</text>
</g>
<!-- &#45;7559112563617248686&#45;&gt;4656463538809905916 -->
<g id="edge11" class="edge">
<title>&#45;7559112563617248686&#45;&gt;4656463538809905916</title>
<path fill="none" stroke="black" d="M277.94,-1554.59C271.51,-1581.22 260.39,-1633.84 260.39,-1679.24 260.39,-1679.24 260.39,-1679.24 260.39,-1763.19 260.39,-1805.35 265.75,-1852.54 271.06,-1888.91"/>
<polygon fill="black" stroke="black" points="267.61,-1889.5 272.55,-1898.87 274.53,-1888.46 267.61,-1889.5"/>
</g>
<!-- 5348601820576361267 -->
<g id="node47" class="node">
<title>5348601820576361267</title>
<ellipse fill="none" stroke="black" cx="310.39" cy="-1608.24" rx="18" ry="18"/>
<text text-anchor="middle" x="310.39" y="-1604.54" font-family="Helvetica,sans-Serif" font-size="14.00">x</text>
</g>
<!-- &#45;7559112563617248686&#45;&gt;5348601820576361267 -->
<g id="edge50" class="edge">
<title>&#45;7559112563617248686&#45;&gt;5348601820576361267</title>
<path fill="none" stroke="black" d="M289.31,-1554.54C292.6,-1562.75 296.58,-1572.72 300.2,-1581.76"/>
<polygon fill="black" stroke="black" points="296.97,-1583.11 303.94,-1591.09 303.47,-1580.51 296.97,-1583.11"/>
</g>
<!-- 2450961781631597348 -->
<g id="node14" class="node">
<title>2450961781631597348</title>
<polygon fill="none" stroke="black" points="342.39,-1862.13 288.39,-1862.13 288.39,-1826.13 342.39,-1826.13 342.39,-1862.13"/>
<text text-anchor="middle" x="315.39" y="-1840.43" font-family="Helvetica,sans-Serif" font-size="14.00">1</text>
</g>
<!-- 2450961781631597348&#45;&gt;4656463538809905916 -->
<g id="edge12" class="edge">
<title>2450961781631597348&#45;&gt;4656463538809905916</title>
<path fill="none" stroke="black" d="M309.78,-1862.41C307.18,-1870.41 303.92,-1880.44 300.55,-1890.81"/>
<polygon fill="black" stroke="black" points="297.2,-1889.8 297.44,-1900.4 303.86,-1891.97 297.2,-1889.8"/>
</g>
<!-- 3836227369676803387 -->
<g id="node15" class="node">
<title>3836227369676803387</title>
<ellipse fill="none" stroke="black" cx="149.39" cy="-1429.59" rx="52.79" ry="52.79"/>
<text text-anchor="middle" x="149.39" y="-1425.89" font-family="Helvetica,sans-Serif" font-size="14.00">with&#45;field</text>
</g>
<!-- 3836227369676803387&#45;&gt;4379990753990304505 -->
<g id="edge13" class="edge">
<title>3836227369676803387&#45;&gt;4379990753990304505</title>
<path fill="none" stroke="black" d="M149.39,-1482.3C149.39,-1491.22 149.39,-1500.17 149.39,-1508.1"/>
<polygon fill="black" stroke="black" points="145.89,-1508.19 149.39,-1518.19 152.89,-1508.19 145.89,-1508.19"/>
</g>
<!-- 3359328823094363872 -->
<g id="node16" class="node">
<title>3359328823094363872</title>
<polygon fill="none" stroke="black" points="143.39,-994.06 89.39,-994.06 89.39,-958.06 143.39,-958.06 143.39,-994.06"/>
<text text-anchor="middle" x="116.39" y="-972.36" font-family="Helvetica,sans-Serif" font-size="14.00">0</text>
</g>
<!-- 3359328823094363872&#45;&gt;3836227369676803387 -->
<g id="edge14" class="edge">
<title>3359328823094363872&#45;&gt;3836227369676803387</title>
<path fill="none" stroke="black" d="M112.35,-994.43C106.5,-1021.09 96.39,-1073.75 96.39,-1119.06 96.39,-1119.06 96.39,-1119.06 96.39,-1222.5 96.39,-1273.81 111.99,-1330.09 126.26,-1370.86"/>
<polygon fill="black" stroke="black" points="122.99,-1372.12 129.66,-1380.36 129.58,-1369.76 122.99,-1372.12"/>
</g>
<!-- &#45;5508720313630522212 -->
<g id="node39" class="node">
<title>&#45;5508720313630522212</title>
<ellipse fill="none" stroke="black" cx="151.39" cy="-1048.06" rx="18" ry="18"/>
<text text-anchor="middle" x="151.39" y="-1044.36" font-family="Helvetica,sans-Serif" font-size="14.00">x</text>
</g>
<!-- 3359328823094363872&#45;&gt;&#45;5508720313630522212 -->
<g id="edge40" class="edge">
<title>3359328823094363872&#45;&gt;&#45;5508720313630522212</title>
<path fill="none" stroke="black" d="M125.04,-994.36C129.25,-1002.77 134.38,-1013.04 139,-1022.27"/>
<polygon fill="black" stroke="black" points="135.96,-1024.01 143.56,-1031.39 142.22,-1020.88 135.96,-1024.01"/>
</g>
<!-- &#45;2718374313911712754 -->
<g id="node17" class="node">
<title>&#45;2718374313911712754</title>
<polygon fill="none" stroke="black" points="188.39,-1340.95 134.39,-1340.95 134.39,-1304.95 188.39,-1304.95 188.39,-1340.95"/>
<text text-anchor="middle" x="161.39" y="-1319.25" font-family="Helvetica,sans-Serif" font-size="14.00">0</text>
</g>
<!-- &#45;2718374313911712754&#45;&gt;3836227369676803387 -->
<g id="edge15" class="edge">
<title>&#45;2718374313911712754&#45;&gt;3836227369676803387</title>
<path fill="none" stroke="black" d="M159.41,-1341.23C158.58,-1348.48 157.56,-1357.38 156.49,-1366.71"/>
<polygon fill="black" stroke="black" points="152.98,-1366.6 155.32,-1376.94 159.93,-1367.4 152.98,-1366.6"/>
</g>
<!-- &#45;1795219295653232952 -->
<g id="node18" class="node">
<title>&#45;1795219295653232952</title>
<ellipse fill="none" stroke="black" cx="282.39" cy="-1429.59" rx="52.79" ry="52.79"/>
<text text-anchor="middle" x="282.39" y="-1425.89" font-family="Helvetica,sans-Serif" font-size="14.00">with&#45;field</text>
</g>
<!-- &#45;1795219295653232952&#45;&gt;&#45;7559112563617248686 -->
<g id="edge16" class="edge">
<title>&#45;1795219295653232952&#45;&gt;&#45;7559112563617248686</title>
<path fill="none" stroke="black" d="M282.39,-1482.3C282.39,-1491.22 282.39,-1500.17 282.39,-1508.1"/>
<polygon fill="black" stroke="black" points="278.89,-1508.19 282.39,-1518.19 285.89,-1508.19 278.89,-1508.19"/>
</g>
<!-- &#45;8579774494513189319 -->
<g id="node19" class="node">
<title>&#45;8579774494513189319</title>
<polygon fill="none" stroke="black" points="307.39,-994.06 253.39,-994.06 253.39,-958.06 307.39,-958.06 307.39,-994.06"/>
<text text-anchor="middle" x="280.39" y="-972.36" font-family="Helvetica,sans-Serif" font-size="14.00">1</text>
</g>
<!-- &#45;8579774494513189319&#45;&gt;&#45;1795219295653232952 -->
<g id="edge17" class="edge">
<title>&#45;8579774494513189319&#45;&gt;&#45;1795219295653232952</title>
<path fill="none" stroke="black" d="M275.94,-994.41C269.51,-1021.04 258.39,-1073.65 258.39,-1119.06 258.39,-1119.06 258.39,-1119.06 258.39,-1222.5 258.39,-1271.48 265.16,-1326.58 271.51,-1367.47"/>
<polygon fill="black" stroke="black" points="268.09,-1368.22 273.11,-1377.55 275,-1367.12 268.09,-1368.22"/>
</g>
<!-- &#45;6545559725902842855 -->
<g id="node41" class="node">
<title>&#45;6545559725902842855</title>
<ellipse fill="none" stroke="black" cx="313.39" cy="-1048.06" rx="18" ry="18"/>
<text text-anchor="middle" x="313.39" y="-1044.36" font-family="Helvetica,sans-Serif" font-size="14.00">x</text>
</g>
<!-- &#45;8579774494513189319&#45;&gt;&#45;6545559725902842855 -->
<g id="edge42" class="edge">
<title>&#45;8579774494513189319&#45;&gt;&#45;6545559725902842855</title>
<path fill="none" stroke="black" d="M288.55,-994.36C292.52,-1002.77 297.36,-1013.04 301.71,-1022.27"/>
<polygon fill="black" stroke="black" points="298.58,-1023.83 306.01,-1031.39 304.91,-1020.85 298.58,-1023.83"/>
</g>
<!-- &#45;609090940794082457 -->
<g id="node20" class="node">
<title>&#45;609090940794082457</title>
<polygon fill="none" stroke="black" points="350.39,-1340.95 296.39,-1340.95 296.39,-1304.95 350.39,-1304.95 350.39,-1340.95"/>
<text text-anchor="middle" x="323.39" y="-1319.25" font-family="Helvetica,sans-Serif" font-size="14.00">1</text>
</g>
<!-- &#45;609090940794082457&#45;&gt;&#45;1795219295653232952 -->
<g id="edge18" class="edge">
<title>&#45;609090940794082457&#45;&gt;&#45;1795219295653232952</title>
<path fill="none" stroke="black" d="M316.62,-1341.23C313.39,-1349.49 309.3,-1359.91 305.1,-1370.65"/>
<polygon fill="black" stroke="black" points="301.77,-1369.53 301.39,-1380.12 308.29,-1372.09 301.77,-1369.53"/>
</g>
<!-- 3865667380751091534 -->
<g id="node21" class="node">
<title>3865667380751091534</title>
<ellipse fill="none" stroke="black" cx="116.39" cy="-876.56" rx="45.49" ry="45.49"/>
<text text-anchor="middle" x="116.39" y="-872.86" font-family="Helvetica,sans-Serif" font-size="14.00">getitem</text>
</g>
<!-- 3865667380751091534&#45;&gt;3359328823094363872 -->
<g id="edge19" class="edge">
<title>3865667380751091534&#45;&gt;3359328823094363872</title>
<path fill="none" stroke="black" d="M116.39,-922.31C116.39,-930.99 116.39,-939.83 116.39,-947.73"/>
<polygon fill="black" stroke="black" points="112.89,-947.83 116.39,-957.83 119.89,-947.83 112.89,-947.83"/>
</g>
<!-- 4159687989708466672 -->
<g id="node22" class="node">
<title>4159687989708466672</title>
<polygon fill="none" stroke="black" points="161.39,-795.06 107.39,-795.06 107.39,-759.06 161.39,-759.06 161.39,-795.06"/>
<text text-anchor="middle" x="134.39" y="-773.36" font-family="Helvetica,sans-Serif" font-size="14.00">0</text>
</g>
<!-- 4159687989708466672&#45;&gt;3865667380751091534 -->
<g id="edge20" class="edge">
<title>4159687989708466672&#45;&gt;3865667380751091534</title>
<path fill="none" stroke="black" d="M131.18,-795.49C129.79,-802.97 128.1,-812.16 126.35,-821.61"/>
<polygon fill="black" stroke="black" points="122.9,-821.02 124.53,-831.49 129.79,-822.29 122.9,-821.02"/>
</g>
<!-- 2778893255181264633 -->
<g id="node23" class="node">
<title>2778893255181264633</title>
<polygon fill="none" stroke="black" points="102.39,-222.79 48.39,-222.79 48.39,-186.79 102.39,-186.79 102.39,-222.79"/>
<text text-anchor="middle" x="75.39" y="-201.09" font-family="Helvetica,sans-Serif" font-size="14.00">0</text>
</g>
<!-- 2778893255181264633&#45;&gt;3865667380751091534 -->
<g id="edge21" class="edge">
<title>2778893255181264633&#45;&gt;3865667380751091534</title>
<path fill="none" stroke="black" d="M75.39,-223C75.39,-253.47 75.39,-318.93 75.39,-374.18 75.39,-374.18 75.39,-374.18 75.39,-688.32 75.39,-734.9 87.65,-786.53 98.77,-823.76"/>
<polygon fill="black" stroke="black" points="95.44,-824.84 101.71,-833.38 102.13,-822.79 95.44,-824.84"/>
</g>
<!-- &#45;2710159442683327183 -->
<g id="node29" class="node">
<title>&#45;2710159442683327183</title>
<ellipse fill="none" stroke="black" cx="147.39" cy="-289.98" rx="31.4" ry="31.4"/>
<text text-anchor="middle" x="147.39" y="-286.28" font-family="Helvetica,sans-Serif" font-size="14.00">num</text>
</g>
<!-- 2778893255181264633&#45;&gt;&#45;2710159442683327183 -->
<g id="edge28" class="edge">
<title>2778893255181264633&#45;&gt;&#45;2710159442683327183</title>
<path fill="none" stroke="black" d="M90.31,-223.03C99.1,-233.18 110.47,-246.32 120.75,-258.19"/>
<polygon fill="black" stroke="black" points="118.11,-260.5 127.3,-265.77 123.41,-255.92 118.11,-260.5"/>
</g>
<!-- &#45;1336816907381849636 -->
<g id="node24" class="node">
<title>&#45;1336816907381849636</title>
<ellipse fill="none" stroke="black" cx="280.39" cy="-876.56" rx="45.49" ry="45.49"/>
<text text-anchor="middle" x="280.39" y="-872.86" font-family="Helvetica,sans-Serif" font-size="14.00">getitem</text>
</g>
<!-- &#45;1336816907381849636&#45;&gt;&#45;8579774494513189319 -->
<g id="edge22" class="edge">
<title>&#45;1336816907381849636&#45;&gt;&#45;8579774494513189319</title>
<path fill="none" stroke="black" d="M280.39,-922.31C280.39,-930.99 280.39,-939.83 280.39,-947.73"/>
<polygon fill="black" stroke="black" points="276.89,-947.83 280.39,-957.83 283.89,-947.83 276.89,-947.83"/>
</g>
<!-- &#45;733386039264229694 -->
<g id="node25" class="node">
<title>&#45;733386039264229694</title>
<polygon fill="none" stroke="black" points="348.39,-795.06 294.39,-795.06 294.39,-759.06 348.39,-759.06 348.39,-795.06"/>
<text text-anchor="middle" x="321.39" y="-773.36" font-family="Helvetica,sans-Serif" font-size="14.00">1</text>
</g>
<!-- &#45;733386039264229694&#45;&gt;&#45;1336816907381849636 -->
<g id="edge23" class="edge">
<title>&#45;733386039264229694&#45;&gt;&#45;1336816907381849636</title>
<path fill="none" stroke="black" d="M314.06,-795.49C310.54,-803.88 306.11,-814.42 301.63,-825.06"/>
<polygon fill="black" stroke="black" points="298.36,-823.82 297.71,-834.39 304.81,-826.53 298.36,-823.82"/>
</g>
<!-- &#45;6512538156775799861 -->
<g id="node26" class="node">
<title>&#45;6512538156775799861</title>
<polygon fill="none" stroke="black" points="325.39,-222.79 271.39,-222.79 271.39,-186.79 325.39,-186.79 325.39,-222.79"/>
<text text-anchor="middle" x="298.39" y="-201.09" font-family="Helvetica,sans-Serif" font-size="14.00">1</text>
</g>
<!-- &#45;6512538156775799861&#45;&gt;&#45;1336816907381849636 -->
<g id="edge24" class="edge">
<title>&#45;6512538156775799861&#45;&gt;&#45;1336816907381849636</title>
<path fill="none" stroke="black" d="M292.12,-223.22C281.81,-253.51 262.39,-317.98 262.39,-374.18 262.39,-374.18 262.39,-374.18 262.39,-688.32 262.39,-733.24 267.59,-783.95 272.4,-821.26"/>
<polygon fill="black" stroke="black" points="268.96,-821.96 273.74,-831.41 275.9,-821.04 268.96,-821.96"/>
</g>
<!-- 4374562767888365392 -->
<g id="node31" class="node">
<title>4374562767888365392</title>
<ellipse fill="none" stroke="black" cx="334.39" cy="-289.98" rx="31.4" ry="31.4"/>
<text text-anchor="middle" x="334.39" y="-286.28" font-family="Helvetica,sans-Serif" font-size="14.00">num</text>
</g>
<!-- &#45;6512538156775799861&#45;&gt;4374562767888365392 -->
<g id="edge30" class="edge">
<title>&#45;6512538156775799861&#45;&gt;4374562767888365392</title>
<path fill="none" stroke="black" d="M305.85,-223.03C309.44,-231.32 313.9,-241.61 318.21,-251.58"/>
<polygon fill="black" stroke="black" points="315.08,-253.17 322.27,-260.96 321.51,-250.39 315.08,-253.17"/>
</g>
<!-- &#45;5479977590332531973 -->
<g id="node27" class="node">
<title>&#45;5479977590332531973</title>
<ellipse fill="none" stroke="black" cx="75.39" cy="-75.39" rx="75.29" ry="75.29"/>
<text text-anchor="middle" x="75.39" y="-71.69" font-family="Helvetica,sans-Serif" font-size="14.00">from&#45;awkward</text>
</g>
<!-- &#45;5479977590332531973&#45;&gt;2778893255181264633 -->
<g id="edge25" class="edge">
<title>&#45;5479977590332531973&#45;&gt;2778893255181264633</title>
<path fill="none" stroke="black" d="M75.39,-150.87C75.39,-159.9 75.39,-168.63 75.39,-176.31"/>
<polygon fill="black" stroke="black" points="71.89,-176.39 75.39,-186.39 78.89,-176.39 71.89,-176.39"/>
</g>
<!-- &#45;846677415337980527 -->
<g id="node28" class="node">
<title>&#45;846677415337980527</title>
<ellipse fill="none" stroke="black" cx="298.39" cy="-75.39" rx="75.29" ry="75.29"/>
<text text-anchor="middle" x="298.39" y="-71.69" font-family="Helvetica,sans-Serif" font-size="14.00">from&#45;awkward</text>
</g>
<!-- &#45;846677415337980527&#45;&gt;&#45;6512538156775799861 -->
<g id="edge26" class="edge">
<title>&#45;846677415337980527&#45;&gt;&#45;6512538156775799861</title>
<path fill="none" stroke="black" d="M298.39,-150.87C298.39,-159.9 298.39,-168.63 298.39,-176.31"/>
<polygon fill="black" stroke="black" points="294.89,-176.39 298.39,-186.39 301.89,-176.39 294.89,-176.39"/>
</g>
<!-- 808179296762361735 -->
<g id="node30" class="node">
<title>808179296762361735</title>
<polygon fill="none" stroke="black" points="181.39,-393.18 127.39,-393.18 127.39,-357.18 181.39,-357.18 181.39,-393.18"/>
<text text-anchor="middle" x="154.39" y="-371.48" font-family="Helvetica,sans-Serif" font-size="14.00">0</text>
</g>
<!-- &#45;2710159442683327183&#45;&gt;808179296762361735 -->
<g id="edge27" class="edge">
<title>&#45;2710159442683327183&#45;&gt;808179296762361735</title>
<path fill="none" stroke="black" d="M149.96,-321.49C150.65,-329.75 151.4,-338.63 152.08,-346.71"/>
<polygon fill="black" stroke="black" points="148.6,-347.07 152.93,-356.74 155.58,-346.48 148.6,-347.07"/>
</g>
<!-- 6467477469369404539 -->
<g id="node33" class="node">
<title>6467477469369404539</title>
<ellipse fill="none" stroke="black" cx="160.39" cy="-486.38" rx="57.39" ry="57.39"/>
<text text-anchor="middle" x="160.39" y="-482.68" font-family="Helvetica,sans-Serif" font-size="14.00">remainder</text>
</g>
<!-- 808179296762361735&#45;&gt;6467477469369404539 -->
<g id="edge32" class="edge">
<title>808179296762361735&#45;&gt;6467477469369404539</title>
<path fill="none" stroke="black" d="M155.33,-393.24C155.73,-400.54 156.23,-409.58 156.75,-419.11"/>
<polygon fill="black" stroke="black" points="153.26,-419.39 157.31,-429.18 160.25,-419 153.26,-419.39"/>
</g>
<!-- 7315820052864360160 -->
<g id="node32" class="node">
<title>7315820052864360160</title>
<polygon fill="none" stroke="black" points="367.39,-393.18 313.39,-393.18 313.39,-357.18 367.39,-357.18 367.39,-393.18"/>
<text text-anchor="middle" x="340.39" y="-371.48" font-family="Helvetica,sans-Serif" font-size="14.00">1</text>
</g>
<!-- 4374562767888365392&#45;&gt;7315820052864360160 -->
<g id="edge29" class="edge">
<title>4374562767888365392&#45;&gt;7315820052864360160</title>
<path fill="none" stroke="black" d="M336.59,-321.49C337.19,-329.75 337.83,-338.63 338.41,-346.71"/>
<polygon fill="black" stroke="black" points="334.93,-347.02 339.14,-356.74 341.91,-346.51 334.93,-347.02"/>
</g>
<!-- 5430638057097083896 -->
<g id="node35" class="node">
<title>5430638057097083896</title>
<ellipse fill="none" stroke="black" cx="347.39" cy="-486.38" rx="57.39" ry="57.39"/>
<text text-anchor="middle" x="347.39" y="-482.68" font-family="Helvetica,sans-Serif" font-size="14.00">remainder</text>
</g>
<!-- 7315820052864360160&#45;&gt;5430638057097083896 -->
<g id="edge34" class="edge">
<title>7315820052864360160&#45;&gt;5430638057097083896</title>
<path fill="none" stroke="black" d="M341.49,-393.24C341.96,-400.54 342.53,-409.58 343.15,-419.11"/>
<polygon fill="black" stroke="black" points="339.66,-419.42 343.79,-429.18 346.64,-418.98 339.66,-419.42"/>
</g>
<!-- 6511106779172426754 -->
<g id="node34" class="node">
<title>6511106779172426754</title>
<polygon fill="none" stroke="black" points="180.39,-615.57 126.39,-615.57 126.39,-579.57 180.39,-579.57 180.39,-615.57"/>
<text text-anchor="middle" x="153.39" y="-593.87" font-family="Helvetica,sans-Serif" font-size="14.00">0</text>
</g>
<!-- 6467477469369404539&#45;&gt;6511106779172426754 -->
<g id="edge31" class="edge">
<title>6467477469369404539&#45;&gt;6511106779172426754</title>
<path fill="none" stroke="black" d="M156.79,-543.57C156.22,-552.48 155.65,-561.34 155.15,-569.18"/>
<polygon fill="black" stroke="black" points="151.66,-568.96 154.51,-579.17 158.64,-569.41 151.66,-568.96"/>
</g>
<!-- &#45;8423393015336488323 -->
<g id="node37" class="node">
<title>&#45;8423393015336488323</title>
<ellipse fill="none" stroke="black" cx="149.39" cy="-687.32" rx="36" ry="36"/>
<text text-anchor="middle" x="149.39" y="-683.62" font-family="Helvetica,sans-Serif" font-size="14.00">equal</text>
</g>
<!-- 6511106779172426754&#45;&gt;&#45;8423393015336488323 -->
<g id="edge36" class="edge">
<title>6511106779172426754&#45;&gt;&#45;8423393015336488323</title>
<path fill="none" stroke="black" d="M152.6,-615.91C152.27,-623.31 151.85,-632.33 151.44,-641.4"/>
<polygon fill="black" stroke="black" points="147.94,-641.45 150.98,-651.59 154.93,-641.76 147.94,-641.45"/>
</g>
<!-- &#45;2780324632784637740 -->
<g id="node36" class="node">
<title>&#45;2780324632784637740</title>
<polygon fill="none" stroke="black" points="368.39,-615.57 314.39,-615.57 314.39,-579.57 368.39,-579.57 368.39,-615.57"/>
<text text-anchor="middle" x="341.39" y="-593.87" font-family="Helvetica,sans-Serif" font-size="14.00">1</text>
</g>
<!-- 5430638057097083896&#45;&gt;&#45;2780324632784637740 -->
<g id="edge33" class="edge">
<title>5430638057097083896&#45;&gt;&#45;2780324632784637740</title>
<path fill="none" stroke="black" d="M344.31,-543.57C343.82,-552.48 343.33,-561.34 342.9,-569.18"/>
<polygon fill="black" stroke="black" points="339.4,-568.99 342.35,-579.17 346.39,-569.37 339.4,-568.99"/>
</g>
<!-- &#45;4184073842897595715 -->
<g id="node38" class="node">
<title>&#45;4184073842897595715</title>
<ellipse fill="none" stroke="black" cx="336.39" cy="-687.32" rx="36" ry="36"/>
<text text-anchor="middle" x="336.39" y="-683.62" font-family="Helvetica,sans-Serif" font-size="14.00">equal</text>
</g>
<!-- &#45;2780324632784637740&#45;&gt;&#45;4184073842897595715 -->
<g id="edge38" class="edge">
<title>&#45;2780324632784637740&#45;&gt;&#45;4184073842897595715</title>
<path fill="none" stroke="black" d="M340.41,-615.91C339.98,-623.31 339.47,-632.33 338.95,-641.4"/>
<polygon fill="black" stroke="black" points="335.45,-641.41 338.37,-651.59 342.44,-641.81 335.45,-641.41"/>
</g>
<!-- &#45;8423393015336488323&#45;&gt;4159687989708466672 -->
<g id="edge35" class="edge">
<title>&#45;8423393015336488323&#45;&gt;4159687989708466672</title>
<path fill="none" stroke="black" d="M143.51,-722.75C142.05,-731.29 140.5,-740.34 139.1,-748.51"/>
<polygon fill="black" stroke="black" points="135.61,-748.18 137.37,-758.62 142.51,-749.36 135.61,-748.18"/>
</g>
<!-- &#45;4184073842897595715&#45;&gt;&#45;733386039264229694 -->
<g id="edge37" class="edge">
<title>&#45;4184073842897595715&#45;&gt;&#45;733386039264229694</title>
<path fill="none" stroke="black" d="M330.51,-722.75C329.05,-731.29 327.5,-740.34 326.1,-748.51"/>
<polygon fill="black" stroke="black" points="322.61,-748.18 324.37,-758.62 329.51,-749.36 322.61,-748.18"/>
</g>
<!-- 7898744473799414061 -->
<g id="node40" class="node">
<title>7898744473799414061</title>
<polygon fill="none" stroke="black" points="188.39,-1138.06 134.39,-1138.06 134.39,-1102.06 188.39,-1102.06 188.39,-1138.06"/>
<text text-anchor="middle" x="161.39" y="-1116.36" font-family="Helvetica,sans-Serif" font-size="14.00">0</text>
</g>
<!-- &#45;5508720313630522212&#45;&gt;7898744473799414061 -->
<g id="edge39" class="edge">
<title>&#45;5508720313630522212&#45;&gt;7898744473799414061</title>
<path fill="none" stroke="black" d="M153.81,-1066C154.92,-1073.71 156.25,-1083.03 157.48,-1091.69"/>
<polygon fill="black" stroke="black" points="154.05,-1092.38 158.93,-1101.78 160.98,-1091.39 154.05,-1092.38"/>
</g>
<!-- 110799174251188364 -->
<g id="node43" class="node">
<title>110799174251188364</title>
<ellipse fill="none" stroke="black" cx="171.39" cy="-1221.5" rx="47.39" ry="47.39"/>
<text text-anchor="middle" x="171.39" y="-1217.8" font-family="Helvetica,sans-Serif" font-size="14.00">multiply</text>
</g>
<!-- 7898744473799414061&#45;&gt;110799174251188364 -->
<g id="edge44" class="edge">
<title>7898744473799414061&#45;&gt;110799174251188364</title>
<path fill="none" stroke="black" d="M163.14,-1138.38C163.87,-1145.65 164.76,-1154.57 165.69,-1163.81"/>
<polygon fill="black" stroke="black" points="162.22,-1164.3 166.71,-1173.9 169.19,-1163.6 162.22,-1164.3"/>
</g>
<!-- &#45;1392686938157650433 -->
<g id="node42" class="node">
<title>&#45;1392686938157650433</title>
<polygon fill="none" stroke="black" points="350.39,-1138.06 296.39,-1138.06 296.39,-1102.06 350.39,-1102.06 350.39,-1138.06"/>
<text text-anchor="middle" x="323.39" y="-1116.36" font-family="Helvetica,sans-Serif" font-size="14.00">1</text>
</g>
<!-- &#45;6545559725902842855&#45;&gt;&#45;1392686938157650433 -->
<g id="edge41" class="edge">
<title>&#45;6545559725902842855&#45;&gt;&#45;1392686938157650433</title>
<path fill="none" stroke="black" d="M315.81,-1066C316.92,-1073.71 318.25,-1083.03 319.48,-1091.69"/>
<polygon fill="black" stroke="black" points="316.05,-1092.38 320.93,-1101.78 322.98,-1091.39 316.05,-1092.38"/>
</g>
<!-- &#45;5969486315608597929 -->
<g id="node44" class="node">
<title>&#45;5969486315608597929</title>
<ellipse fill="none" stroke="black" cx="333.39" cy="-1221.5" rx="47.39" ry="47.39"/>
<text text-anchor="middle" x="333.39" y="-1217.8" font-family="Helvetica,sans-Serif" font-size="14.00">multiply</text>
</g>
<!-- &#45;1392686938157650433&#45;&gt;&#45;5969486315608597929 -->
<g id="edge46" class="edge">
<title>&#45;1392686938157650433&#45;&gt;&#45;5969486315608597929</title>
<path fill="none" stroke="black" d="M325.14,-1138.38C325.87,-1145.65 326.76,-1154.57 327.69,-1163.81"/>
<polygon fill="black" stroke="black" points="324.22,-1164.3 328.71,-1173.9 331.19,-1163.6 324.22,-1164.3"/>
</g>
<!-- 110799174251188364&#45;&gt;&#45;2718374313911712754 -->
<g id="edge43" class="edge">
<title>110799174251188364&#45;&gt;&#45;2718374313911712754</title>
<path fill="none" stroke="black" d="M166.74,-1268.73C165.86,-1277.52 164.96,-1286.45 164.16,-1294.43"/>
<polygon fill="black" stroke="black" points="160.66,-1294.3 163.14,-1304.6 167.62,-1295.01 160.66,-1294.3"/>
</g>
<!-- &#45;5969486315608597929&#45;&gt;&#45;609090940794082457 -->
<g id="edge45" class="edge">
<title>&#45;5969486315608597929&#45;&gt;&#45;609090940794082457</title>
<path fill="none" stroke="black" d="M328.74,-1268.73C327.86,-1277.52 326.96,-1286.45 326.16,-1294.43"/>
<polygon fill="black" stroke="black" points="322.66,-1294.3 325.14,-1304.6 329.62,-1295.01 322.66,-1294.3"/>
</g>
<!-- &#45;8075157915918280206 -->
<g id="node46" class="node">
<title>&#45;8075157915918280206</title>
<polygon fill="none" stroke="black" points="204.39,-1698.24 150.39,-1698.24 150.39,-1662.24 204.39,-1662.24 204.39,-1698.24"/>
<text text-anchor="middle" x="177.39" y="-1676.54" font-family="Helvetica,sans-Serif" font-size="14.00">0</text>
</g>
<!-- &#45;420666299168297185&#45;&gt;&#45;8075157915918280206 -->
<g id="edge47" class="edge">
<title>&#45;420666299168297185&#45;&gt;&#45;8075157915918280206</title>
<path fill="none" stroke="black" d="M173.63,-1626.54C174.18,-1634.26 174.84,-1643.53 175.46,-1652.13"/>
<polygon fill="black" stroke="black" points="171.97,-1652.41 176.17,-1662.13 178.95,-1651.91 171.97,-1652.41"/>
</g>
<!-- &#45;7693675425467836339 -->
<g id="node49" class="node">
<title>&#45;7693675425467836339</title>
<ellipse fill="none" stroke="black" cx="177.39" cy="-1762.19" rx="27.9" ry="27.9"/>
<text text-anchor="middle" x="177.39" y="-1758.49" font-family="Helvetica,sans-Serif" font-size="14.00">add</text>
</g>
<!-- &#45;8075157915918280206&#45;&gt;&#45;7693675425467836339 -->
<g id="edge52" class="edge">
<title>&#45;8075157915918280206&#45;&gt;&#45;7693675425467836339</title>
<path fill="none" stroke="black" d="M177.39,-1698.59C177.39,-1706.05 177.39,-1715.07 177.39,-1723.92"/>
<polygon fill="black" stroke="black" points="173.89,-1724.12 177.39,-1734.12 180.89,-1724.12 173.89,-1724.12"/>
</g>
<!-- &#45;1567517159816281781 -->
<g id="node48" class="node">
<title>&#45;1567517159816281781</title>
<polygon fill="none" stroke="black" points="342.39,-1698.24 288.39,-1698.24 288.39,-1662.24 342.39,-1662.24 342.39,-1698.24"/>
<text text-anchor="middle" x="315.39" y="-1676.54" font-family="Helvetica,sans-Serif" font-size="14.00">1</text>
</g>
<!-- 5348601820576361267&#45;&gt;&#45;1567517159816281781 -->
<g id="edge49" class="edge">
<title>5348601820576361267&#45;&gt;&#45;1567517159816281781</title>
<path fill="none" stroke="black" d="M311.63,-1626.54C312.18,-1634.26 312.84,-1643.53 313.46,-1652.13"/>
<polygon fill="black" stroke="black" points="309.97,-1652.41 314.17,-1662.13 316.95,-1651.91 309.97,-1652.41"/>
</g>
<!-- &#45;608953214896143764 -->
<g id="node50" class="node">
<title>&#45;608953214896143764</title>
<ellipse fill="none" stroke="black" cx="316.39" cy="-1762.19" rx="27.9" ry="27.9"/>
<text text-anchor="middle" x="316.39" y="-1758.49" font-family="Helvetica,sans-Serif" font-size="14.00">add</text>
</g>
<!-- &#45;1567517159816281781&#45;&gt;&#45;608953214896143764 -->
<g id="edge54" class="edge">
<title>&#45;1567517159816281781&#45;&gt;&#45;608953214896143764</title>
<path fill="none" stroke="black" d="M315.61,-1698.59C315.7,-1706.05 315.82,-1715.07 315.93,-1723.92"/>
<polygon fill="black" stroke="black" points="312.43,-1724.17 316.05,-1734.12 319.43,-1724.08 312.43,-1724.17"/>
</g>
<!-- &#45;7693675425467836339&#45;&gt;&#45;4056678974470401077 -->
<g id="edge51" class="edge">
<title>&#45;7693675425467836339&#45;&gt;&#45;4056678974470401077</title>
<path fill="none" stroke="black" d="M177.39,-1790.25C177.39,-1798.44 177.39,-1807.44 177.39,-1815.66"/>
<polygon fill="black" stroke="black" points="173.89,-1815.87 177.39,-1825.87 180.89,-1815.87 173.89,-1815.87"/>
</g>
<!-- &#45;608953214896143764&#45;&gt;2450961781631597348 -->
<g id="edge53" class="edge">
<title>&#45;608953214896143764&#45;&gt;2450961781631597348</title>
<path fill="none" stroke="black" d="M316.05,-1790.25C315.95,-1798.44 315.84,-1807.44 315.74,-1815.66"/>
<polygon fill="black" stroke="black" points="312.23,-1815.83 315.61,-1825.87 319.23,-1815.92 312.23,-1815.83"/>
</g>
<!-- 4100326167304200583 -->
<g id="node51" class="node">
<title>4100326167304200583</title>
<ellipse fill="none" stroke="black" cx="165.39" cy="-2681.1" rx="45.49" ry="45.49"/>
<text text-anchor="middle" x="165.39" y="-2677.4" font-family="Helvetica,sans-Serif" font-size="14.00">getitem</text>
</g>
<!-- 4100326167304200583&#45;&gt;3603358666434683924 -->
<g id="edge55" class="edge">
<title>4100326167304200583&#45;&gt;3603358666434683924</title>
<path fill="none" stroke="black" d="M162.2,-2726.57C161.58,-2735.27 160.94,-2744.16 160.37,-2752.1"/>
<polygon fill="black" stroke="black" points="156.86,-2752.03 159.64,-2762.25 163.85,-2752.53 156.86,-2752.03"/>
</g>
<!-- &#45;5507953833325259556 -->
<g id="node52" class="node">
<title>&#45;5507953833325259556</title>
<polygon fill="none" stroke="black" points="179.39,-2248.42 125.39,-2248.42 125.39,-2212.42 179.39,-2212.42 179.39,-2248.42"/>
<text text-anchor="middle" x="152.39" y="-2226.72" font-family="Helvetica,sans-Serif" font-size="14.00">0</text>
</g>
<!-- &#45;5507953833325259556&#45;&gt;4100326167304200583 -->
<g id="edge56" class="edge">
<title>&#45;5507953833325259556&#45;&gt;4100326167304200583</title>
<path fill="none" stroke="black" d="M148.26,-2248.87C141.88,-2277.31 130.39,-2335.52 130.39,-2385.51 130.39,-2385.51 130.39,-2385.51 130.39,-2485.06 130.39,-2533.69 141.07,-2588.09 150.62,-2627.06"/>
<polygon fill="black" stroke="black" points="147.32,-2628.27 153.15,-2637.12 154.11,-2626.57 147.32,-2628.27"/>
</g>
<!-- &#45;389335064162132799 -->
<g id="node59" class="node">
<title>&#45;389335064162132799</title>
<ellipse fill="none" stroke="black" cx="188.39" cy="-2308.47" rx="24.1" ry="24.1"/>
<text text-anchor="middle" x="188.39" y="-2304.77" font-family="Helvetica,sans-Serif" font-size="14.00">wh</text>
</g>
<!-- &#45;5507953833325259556&#45;&gt;&#45;389335064162132799 -->
<g id="edge66" class="edge">
<title>&#45;5507953833325259556&#45;&gt;&#45;389335064162132799</title>
<path fill="none" stroke="black" d="M160.56,-2248.68C164.59,-2257.18 169.56,-2267.68 174.18,-2277.44"/>
<polygon fill="black" stroke="black" points="171.02,-2278.94 178.46,-2286.48 177.35,-2275.95 171.02,-2278.94"/>
</g>
<!-- &#45;7642453200653070395 -->
<g id="node53" class="node">
<title>&#45;7642453200653070395</title>
<polygon fill="none" stroke="black" points="221.39,-2599.61 167.39,-2599.61 167.39,-2563.61 221.39,-2563.61 221.39,-2599.61"/>
<text text-anchor="middle" x="194.39" y="-2577.91" font-family="Helvetica,sans-Serif" font-size="14.00">0</text>
</g>
<!-- &#45;7642453200653070395&#45;&gt;4100326167304200583 -->
<g id="edge57" class="edge">
<title>&#45;7642453200653070395&#45;&gt;4100326167304200583</title>
<path fill="none" stroke="black" d="M189.21,-2600.04C186.89,-2607.84 184.01,-2617.5 181.07,-2627.39"/>
<polygon fill="black" stroke="black" points="177.63,-2626.7 178.13,-2637.28 184.34,-2628.69 177.63,-2626.7"/>
</g>
<!-- 3296199262155627541 -->
<g id="node54" class="node">
<title>3296199262155627541</title>
<ellipse fill="none" stroke="black" cx="347.39" cy="-2681.1" rx="45.49" ry="45.49"/>
<text text-anchor="middle" x="347.39" y="-2677.4" font-family="Helvetica,sans-Serif" font-size="14.00">getitem</text>
</g>
<!-- 3296199262155627541&#45;&gt;&#45;8335744651172869267 -->
<g id="edge58" class="edge">
<title>3296199262155627541&#45;&gt;&#45;8335744651172869267</title>
<path fill="none" stroke="black" d="M343.29,-2726.57C342.49,-2735.27 341.67,-2744.16 340.93,-2752.1"/>
<polygon fill="black" stroke="black" points="337.43,-2751.97 339.99,-2762.25 344.4,-2752.62 337.43,-2751.97"/>
</g>
<!-- 999686922776738869 -->
<g id="node55" class="node">
<title>999686922776738869</title>
<polygon fill="none" stroke="black" points="361.39,-2248.42 307.39,-2248.42 307.39,-2212.42 361.39,-2212.42 361.39,-2248.42"/>
<text text-anchor="middle" x="334.39" y="-2226.72" font-family="Helvetica,sans-Serif" font-size="14.00">1</text>
</g>
<!-- 999686922776738869&#45;&gt;3296199262155627541 -->
<g id="edge59" class="edge">
<title>999686922776738869&#45;&gt;3296199262155627541</title>
<path fill="none" stroke="black" d="M332.38,-2248.49C329.2,-2276.89 323.39,-2335.63 323.39,-2385.51 323.39,-2385.51 323.39,-2385.51 323.39,-2485.06 323.39,-2532.98 330.62,-2587.02 337.14,-2626.05"/>
<polygon fill="black" stroke="black" points="333.73,-2626.87 338.86,-2636.14 340.63,-2625.69 333.73,-2626.87"/>
</g>
<!-- &#45;7352999544315623712 -->
<g id="node61" class="node">
<title>&#45;7352999544315623712</title>
<ellipse fill="none" stroke="black" cx="380.39" cy="-2308.47" rx="24.1" ry="24.1"/>
<text text-anchor="middle" x="380.39" y="-2304.77" font-family="Helvetica,sans-Serif" font-size="14.00">wh</text>
</g>
<!-- 999686922776738869&#45;&gt;&#45;7352999544315623712 -->
<g id="edge68" class="edge">
<title>999686922776738869&#45;&gt;&#45;7352999544315623712</title>
<path fill="none" stroke="black" d="M344.83,-2248.68C350.24,-2257.62 357,-2268.78 363.16,-2278.97"/>
<polygon fill="black" stroke="black" points="360.2,-2280.85 368.37,-2287.59 366.19,-2277.22 360.2,-2280.85"/>
</g>
<!-- &#45;5533169827535440098 -->
<g id="node56" class="node">
<title>&#45;5533169827535440098</title>
<polygon fill="none" stroke="black" points="413.39,-2599.61 359.39,-2599.61 359.39,-2563.61 413.39,-2563.61 413.39,-2599.61"/>
<text text-anchor="middle" x="386.39" y="-2577.91" font-family="Helvetica,sans-Serif" font-size="14.00">1</text>
</g>
<!-- &#45;5533169827535440098&#45;&gt;3296199262155627541 -->
<g id="edge60" class="edge">
<title>&#45;5533169827535440098&#45;&gt;3296199262155627541</title>
<path fill="none" stroke="black" d="M379.42,-2600.04C376.13,-2608.26 372.02,-2618.54 367.85,-2628.96"/>
<polygon fill="black" stroke="black" points="364.49,-2627.94 364.03,-2638.52 370.99,-2630.54 364.49,-2627.94"/>
</g>
<!-- 4453021538526548882&#45;&gt;&#45;5507953833325259556 -->
<g id="edge61" class="edge">
<title>4453021538526548882&#45;&gt;&#45;5507953833325259556</title>
<path fill="none" stroke="black" d="M152.39,-2176.87C152.39,-2185.09 152.39,-2193.87 152.39,-2201.85"/>
<polygon fill="black" stroke="black" points="148.89,-2202.12 152.39,-2212.12 155.89,-2202.12 148.89,-2202.12"/>
</g>
<!-- 4491714460463384632&#45;&gt;999686922776738869 -->
<g id="edge63" class="edge">
<title>4491714460463384632&#45;&gt;999686922776738869</title>
<path fill="none" stroke="black" d="M334.39,-2176.87C334.39,-2185.09 334.39,-2193.87 334.39,-2201.85"/>
<polygon fill="black" stroke="black" points="330.89,-2202.12 334.39,-2212.12 337.89,-2202.12 330.89,-2202.12"/>
</g>
<!-- &#45;5267582136830923552 -->
<g id="node60" class="node">
<title>&#45;5267582136830923552</title>
<polygon fill="none" stroke="black" points="221.39,-2404.51 167.39,-2404.51 167.39,-2368.51 221.39,-2368.51 221.39,-2404.51"/>
<text text-anchor="middle" x="194.39" y="-2382.81" font-family="Helvetica,sans-Serif" font-size="14.00">0</text>
</g>
<!-- &#45;389335064162132799&#45;&gt;&#45;5267582136830923552 -->
<g id="edge65" class="edge">
<title>&#45;389335064162132799&#45;&gt;&#45;5267582136830923552</title>
<path fill="none" stroke="black" d="M190.23,-2332.7C190.87,-2340.8 191.59,-2349.98 192.25,-2358.37"/>
<polygon fill="black" stroke="black" points="188.77,-2358.77 193.05,-2368.46 195.75,-2358.22 188.77,-2358.77"/>
</g>
<!-- &#45;7306204939291568401 -->
<g id="node63" class="node">
<title>&#45;7306204939291568401</title>
<ellipse fill="none" stroke="black" cx="202.39" cy="-2484.06" rx="43.59" ry="43.59"/>
<text text-anchor="middle" x="202.39" y="-2480.36" font-family="Helvetica,sans-Serif" font-size="14.00">greater</text>
</g>
<!-- &#45;5267582136830923552&#45;&gt;&#45;7306204939291568401 -->
<g id="edge70" class="edge">
<title>&#45;5267582136830923552&#45;&gt;&#45;7306204939291568401</title>
<path fill="none" stroke="black" d="M195.82,-2404.6C196.44,-2411.93 197.19,-2420.93 197.97,-2430.2"/>
<polygon fill="black" stroke="black" points="194.49,-2430.61 198.81,-2440.28 201.46,-2430.02 194.49,-2430.61"/>
</g>
<!-- 1240058619271074873 -->
<g id="node62" class="node">
<title>1240058619271074873</title>
<polygon fill="none" stroke="black" points="413.39,-2404.51 359.39,-2404.51 359.39,-2368.51 413.39,-2368.51 413.39,-2404.51"/>
<text text-anchor="middle" x="386.39" y="-2382.81" font-family="Helvetica,sans-Serif" font-size="14.00">1</text>
</g>
<!-- &#45;7352999544315623712&#45;&gt;1240058619271074873 -->
<g id="edge67" class="edge">
<title>&#45;7352999544315623712&#45;&gt;1240058619271074873</title>
<path fill="none" stroke="black" d="M382.23,-2332.7C382.87,-2340.8 383.59,-2349.98 384.25,-2358.37"/>
<polygon fill="black" stroke="black" points="380.77,-2358.77 385.05,-2368.46 387.75,-2358.22 380.77,-2358.77"/>
</g>
<!-- &#45;1099283930446720949 -->
<g id="node64" class="node">
<title>&#45;1099283930446720949</title>
<ellipse fill="none" stroke="black" cx="395.39" cy="-2484.06" rx="43.59" ry="43.59"/>
<text text-anchor="middle" x="395.39" y="-2480.36" font-family="Helvetica,sans-Serif" font-size="14.00">greater</text>
</g>
<!-- 1240058619271074873&#45;&gt;&#45;1099283930446720949 -->
<g id="edge72" class="edge">
<title>1240058619271074873&#45;&gt;&#45;1099283930446720949</title>
<path fill="none" stroke="black" d="M388,-2404.6C388.7,-2412.01 389.56,-2421.13 390.44,-2430.49"/>
<polygon fill="black" stroke="black" points="386.98,-2431.06 391.4,-2440.69 393.95,-2430.4 386.98,-2431.06"/>
</g>
<!-- &#45;7306204939291568401&#45;&gt;&#45;7642453200653070395 -->
<g id="edge69" class="edge">
<title>&#45;7306204939291568401&#45;&gt;&#45;7642453200653070395</title>
<path fill="none" stroke="black" d="M198.84,-2527.52C198.11,-2536.16 197.37,-2545.03 196.71,-2552.98"/>
<polygon fill="black" stroke="black" points="193.2,-2552.9 195.85,-2563.16 200.18,-2553.49 193.2,-2552.9"/>
</g>
<!-- &#45;1099283930446720949&#45;&gt;&#45;5533169827535440098 -->
<g id="edge71" class="edge">
<title>&#45;1099283930446720949&#45;&gt;&#45;5533169827535440098</title>
<path fill="none" stroke="black" d="M391.39,-2527.52C390.58,-2536.16 389.74,-2545.03 389,-2552.98"/>
<polygon fill="black" stroke="black" points="385.49,-2552.88 388.04,-2563.16 392.46,-2553.53 385.49,-2552.88"/>
</g>
</g>
</svg>
